<?xml version="1.0" encoding="UTF-8"?>
<svg width="596px" height="160px" viewBox="0 0 596 160" version="1.1" xmlns="http://www.w3.org/2000/svg" xmlns:xlink="http://www.w3.org/1999/xlink">
    <!-- Generator: Sketch 55.2 (78181) - https://sketchapp.com -->
    <title>Artboard</title>
    <desc>Created with Sketch.</desc>
    <defs>
        <polygon id="path-1" points="0 0 371 0 371 98 0 98"></polygon>
    </defs>
    <g id="Artboard" stroke="none" stroke-width="1" fill="none" fill-rule="evenodd">
        <g id="Group-7" transform="translate(6.000000, 6.000000)">
            <path d="M89.6702,48.1621 L89.6702,90.3581 L104.2282,90.3581 L112.9852,99.1151 L80.8562,99.1151 L80.8562,57.5451 C80.8562,57.5451 72.1552,56.4651 65.8422,57.5451 C59.5302,58.6261 57.1362,62.7161 56.6812,64.0231 C56.2262,65.3311 57.5412,67.4951 58.0512,68.0661 C59.0272,69.1551 60.1122,69.8321 62.2462,71.0501 C64.2202,72.1761 66.5252,73.0541 67.6622,73.4111 C69.3382,73.9371 75.4532,74.7191 75.4532,74.7191 L75.4532,83.5341 L69.9372,82.4531 L54.4402,97.9501 L42.4132,97.9501 L60.9382,79.4251 C60.9382,79.4251 52.0732,75.0581 48.6382,71.4891 C47.1562,69.9481 46.4532,64.9241 46.8142,63.0031 C47.6312,58.6591 51.0002,55.0431 52.1942,54.1331 C53.3882,53.2231 58.8482,50.0961 62.4302,49.4131 C66.0132,48.7311 71.8782,48.1051 74.0962,48.1621 C76.3142,48.2191 89.6702,48.1621 89.6702,48.1621" id="Fill-1" fill="#ECF0F1"></path>
            <polyline id="Stroke-3" stroke="#ECF0F1" stroke-width="9.02" points="148.5276 121.7578 148.7856 148.7858 0.5096 148.7858 0.5096 0.5098 148.7856 0.5098 148.7856 28.5938"></polyline>
            <path d="M148.262,93.4761 C149.307,93.8271 150.913,94.2081 152.601,94.4221 C154.624,94.6781 158.252,93.9281 158.252,93.9281 C158.252,93.9281 155.113,92.4241 153.913,91.5481 C152.227,90.3171 150.703,89.0721 149.189,86.0201 C148.178,83.9821 147.361,81.6821 147.433,77.9001 C147.361,74.1181 148.178,71.8181 149.189,69.7801 C150.703,66.7271 152.319,65.1391 153.913,64.2511 C155.211,63.5291 158.252,61.8721 158.252,61.8721 C158.252,61.8721 157.325,61.6801 156.147,61.5241 C156.158,61.5181 156.171,61.5111 156.171,61.5111 C156.171,61.5111 152.572,60.7671 150.564,61.0201 C148.89,61.2321 147.146,61.6961 146.277,62.0141 C144.734,62.5791 142.276,64.8571 140.932,66.5421 C137.275,71.1241 137.121,74.7371 137.135,77.4111 C137.047,80.1081 137.208,83.7331 140.821,88.3511 C142.454,90.4381 144.165,92.0991 146.277,92.8071" id="Fill-5" fill="#F0C131"></path>
        </g>
        <g id="Group-2" transform="translate(231.000000, 44.000000)">
            <mask id="mask-2" fill="white">
                <use xlink:href="#path-1"></use>
            </mask>
            <g id="Clip-1"></g>
            <text id="Relocista" mask="url(#mask-2)" font-family="KohinoorTelugu-Light, Kohinoor Telugu" font-size="90" font-weight="300" fill="#ECF0F1">
                <tspan x="0" y="69">Relocista</tspan>
            </text>
        </g>
    </g>
</svg>