<?xml version="1.0" encoding="UTF-8"?>
<svg width="58px" height="56px" viewBox="0 0 58 56" version="1.1" xmlns="http://www.w3.org/2000/svg" xmlns:xlink="http://www.w3.org/1999/xlink">
    <!-- Generator: Sketch 55.2 (78181) - https://sketchapp.com -->
    <title>tooltip-home</title>
    <desc>Created with Sketch.</desc>
    <g id="tooltip-home" stroke="none" stroke-width="1" fill="none" fill-rule="evenodd">
        <g id="tooltip-top-copy-10" transform="translate(3.000000, 3.000000)">
            <rect id="BG" stroke="#FFFFFF" fill="#2C2C54" x="0" y="0" width="52" height="42" rx="4"></rect>
            <polygon id="Triangle-1" fill="#2C2C54" transform="translate(25.000000, 45.000000) scale(1, -1) translate(-25.000000, -45.000000) " points="25 40 32 50 18 50"></polygon>
            <path d="M18.5,42 L25,50" id="Line" stroke="#FFFFFF" stroke-linecap="square"></path>
            <path d="M30.5,42 L25.5,50" id="Line-2" stroke="#FFFFFF" stroke-linecap="square"></path>
            <g id="home-icon-silhouette" opacity="0.95" transform="translate(16.000000, 12.000000)" fill="#FFFFFF" fill-rule="nonzero">
                <path d="M19.6642951,8.42515689 L16.6331961,5.39081769 L16.6331961,1.88564668 C16.6331961,1.25186262 16.1201539,0.738231597 15.4861181,0.738231597 C14.8535357,0.738231597 14.3404935,1.25186262 14.3404935,1.88564668 L14.3404935,3.09570462 L12.0836005,0.836318188 C10.9677701,-0.280098784 9.02771333,-0.278118461 7.91442636,0.838338925 L0.335548472,8.42515689 C-0.111849491,8.87392224 -0.111849491,9.600054 0.335548472,10.0481323 C0.783148293,10.4967764 1.50991766,10.4967764 1.95735599,10.0481323 L9.53550719,2.46111226 C9.78237947,2.21526936 10.2175045,2.21526936 10.4630848,2.4603848 L18.0425279,10.0481323 C18.2672766,10.2724746 18.5602936,10.3840597 18.8532298,10.3840597 C19.1467717,10.3840597 19.4402731,10.2723533 19.6643355,10.0481323 C20.1118949,9.60009442 20.1118949,8.87396266 19.6642951,8.42515689 Z" id="Path"></path>
                <path d="M10.4371816,4.31530084 C10.1956145,4.10002792 9.8044741,4.10002792 9.5636156,4.31530084 L2.24989729,10.8345831 C2.13442871,10.9375002 2.06896552,11.0780141 2.06896552,11.2246492 L2.06896552,15.9795703 C2.06896552,17.0953482 3.08360076,18 4.33493108,18 L7.95595822,18 L7.95595822,12.9998708 L12.0440418,12.9998708 L12.0440418,18 L15.6651132,18 C16.9163992,18 17.9310345,17.0953482 17.9310345,15.9796098 L17.9310345,11.2246492 C17.9310345,11.0780141 17.8661471,10.9375002 17.7501027,10.8345831 L10.4371816,4.31530084 Z" id="Path"></path>
            </g>
        </g>
    </g>
</svg>