<?xml version="1.0" encoding="UTF-8"?>
<svg width="58px" height="56px" viewBox="0 0 58 56" version="1.1" xmlns="http://www.w3.org/2000/svg" xmlns:xlink="http://www.w3.org/1999/xlink">
    <!-- Generator: Sketch 55.2 (78181) - https://sketchapp.com -->
    <title>tooltip-home</title>
    <desc>Created with Sketch.</desc>
    <g id="tooltip-home" stroke="none" stroke-width="1" fill="none" fill-rule="evenodd">
        <g id="tooltip-top-copy-10" transform="translate(3.000000, 3.000000)">
            <path d="M18.5,42 L3.99400932,42 C1.78817888,42 0,40.2087482 0,37.9918888 L0,4.00811116 C0,1.79449249 1.7899577,0 3.99400932,0 L48.0059907,0 C50.2118211,0 52,1.79125179 52,4.00811116 L52,37.9918888 C52,40.2055075 50.2100423,42 48.0059907,42 L30.853083,42" id="Path" stroke="#FFFFFF" fill-opacity="0.75" fill="#2C2C54"></path>
            <polygon id="Triangle-1" fill-opacity="0.75" fill="#2C2C54" transform="translate(24.500000, 46.000000) scale(1, -1) translate(-24.500000, -46.000000) " points="24.5 42 30 50 19 50"></polygon>
            <path d="M18.5,42 L25,50" id="Line" stroke="#FFFFFF" stroke-linecap="square"></path>
            <path d="M30.5,42 L25.5,50" id="Line-2" stroke="#FFFFFF" stroke-linecap="square"></path>
            <g id="home-icon-silhouette" opacity="0.95" transform="translate(13.000000, 7.000000)" fill="#FFFFFF" fill-rule="nonzero">
                <path d="M26.5467984,11.2335425 L22.4548147,7.18775692 L22.4548147,2.51419557 C22.4548147,1.66915016 21.7622078,0.984308796 20.9062594,0.984308796 C20.0522731,0.984308796 19.3596662,1.66915016 19.3596662,2.51419557 L19.3596662,4.12760616 L16.3128606,1.11509092 C14.8064896,-0.373465045 12.187413,-0.370824615 10.6844756,1.11778523 L0.452990437,11.2335425 C-0.150996812,11.8318963 -0.150996812,12.800072 0.452990437,13.3975097 C1.0572502,13.9957019 2.03838884,13.9957019 2.64243059,13.3975097 L12.8729347,3.28148302 C13.2062123,2.95369247 13.793631,2.95369247 14.1251645,3.28051306 L24.3574127,13.3975097 C24.6608234,13.6966328 25.0563963,13.8454129 25.4518603,13.8454129 C25.8481418,13.8454129 26.2443687,13.6964711 26.5468529,13.3975097 C27.1510581,12.8001259 27.1510581,11.8319502 26.5467984,11.2335425 Z" id="Path"></path>
                <path d="M14.0901952,5.75373446 C13.7640796,5.4667039 13.23604,5.4667039 12.9108811,5.75373446 L3.03736134,14.4461108 C2.88147876,14.5833336 2.79310345,14.7706854 2.79310345,14.966199 L2.79310345,21.3060937 C2.79310345,22.7937977 4.16286103,24 5.85215695,24 L10.7405436,24 L10.7405436,17.3331611 L16.2594564,17.3331611 L16.2594564,24 L21.1479028,24 C22.837139,24 24.2068966,22.7937977 24.2068966,21.3061463 L24.2068966,14.966199 C24.2068966,14.7706854 24.1192986,14.5833336 23.9626387,14.4461108 L14.0901952,5.75373446 Z" id="Path"></path>
            </g>
        </g>
    </g>
</svg>