<?xml version="1.0" encoding="UTF-8"?>
<svg width="58px" height="99px" viewBox="0 0 58 99" version="1.1" xmlns="http://www.w3.org/2000/svg" xmlns:xlink="http://www.w3.org/1999/xlink">
    <!-- Generator: Sketch 55.2 (78181) - https://sketchapp.com -->
    <title>tooltip-home</title>
    <desc>Created with Sketch.</desc>
    <g id="tooltip-home" stroke="none" stroke-width="1" fill="none" fill-rule="evenodd">
        <g id="tooltip-top-copy-10" transform="translate(3.000000, 3.000000)">
            <rect id="BG" stroke="#FFFFFF" fill="#2C2C54" x="0" y="0" width="52" height="42" rx="4"></rect>
            <polygon id="Triangle-1" fill="#2C2C54" transform="translate(25.000000, 45.000000) scale(1, -1) translate(-25.000000, -45.000000) " points="25 40 32 50 18 50"></polygon>
            <path d="M18.5,42 L25,50" id="Line" stroke="#FFFFFF" stroke-linecap="square"></path>
            <path d="M30.5,42 L25.5,50" id="Line-2" stroke="#FFFFFF" stroke-linecap="square"></path>
            <g id="home-icon-silhouette" opacity="0.95" transform="translate(12.000000, 8.000000)" fill="#FFFFFF" fill-rule="nonzero">
                <path d="M28.5132279,12.1696711 L24.1181343,7.78673666 L24.1181343,2.72371187 C24.1181343,1.808246 23.3742232,1.06633453 22.4548712,1.06633453 C21.5376267,1.06633453 20.7937156,1.808246 20.7937156,2.72371187 L20.7937156,4.47157334 L17.5212207,1.20801516 C15.9032666,-0.404587132 13.0901843,-0.401726666 11.4759182,1.210934 L0.486545284,12.1696711 C-0.162181761,12.8178877 -0.162181761,13.8667447 0.486545284,14.5139689 C1.13556502,15.1620104 2.18938061,15.1620104 2.83816619,14.5139689 L13.8264854,3.55493993 C14.1844502,3.19983351 14.8153815,3.19983351 15.171473,3.55388915 L26.1616655,14.5139689 C26.487551,14.8380188 26.9124257,14.9991973 27.3371833,14.9991973 C27.7628189,14.9991973 28.188396,14.8378437 28.5132864,14.5139689 C29.1622476,13.866803 29.1622476,12.8179461 28.5132279,12.1696711 Z" id="Path"></path>
                <path d="M15.1339134,6.23321233 C14.783641,5.92226256 14.2164874,5.92226256 13.8672426,6.23321233 L3.26235107,15.6499533 C3.09492163,15.7986114 3,16.0015759 3,16.2133822 L3,23.0816015 C3,24.6932808 4.4712211,26 6.28565006,26 L11.5361394,26 L11.5361394,18.7775912 L17.4638606,18.7775912 L17.4638606,26 L22.7144142,26 C24.5287789,26 26,24.6932808 26,23.0816585 L26,16.2133822 C26,16.0015759 25.9059133,15.7986114 25.7376489,15.6499533 L15.1339134,6.23321233 Z" id="Path"></path>
            </g>
        </g>
        <circle id="Oval-Copy-5" fill="#FFFFFF" cx="28" cy="88" r="6"></circle>
        <path d="M28,57 L28.0025279,82.4753087" id="Line-3-Copy-2" stroke="#FFFFFF" stroke-width="2" fill="#FFFFFF" stroke-linecap="square" stroke-dasharray="6"></path>
        <circle id="Oval-Copy-9" fill="#2C2C54" cx="28" cy="88" r="4"></circle>
    </g>
</svg>