<?xml version="1.0" encoding="UTF-8"?>
<svg width="58px" height="56px" viewBox="0 0 58 56" version="1.1" xmlns="http://www.w3.org/2000/svg" xmlns:xlink="http://www.w3.org/1999/xlink">
    <!-- Generator: Sketch 55.2 (78181) - https://sketchapp.com -->
    <title>tooltip-home</title>
    <desc>Created with Sketch.</desc>
    <g id="tooltip-home" stroke="none" stroke-width="1" fill="none" fill-rule="evenodd">
        <g id="tooltip-top-copy-10" transform="translate(3.000000, 3.000000)">
            <path d="M18.5,42 L3.99400932,42 C1.78817888,42 0,40.2087482 0,37.9918888 L0,4.00811116 C0,1.79449249 1.7899577,0 3.99400932,0 L48.0059907,0 C50.2118211,0 52,1.79125179 52,4.00811116 L52,37.9918888 C52,40.2055075 50.2100423,42 48.0059907,42 L30.853083,42" id="Path" stroke="#FFFFFF" fill-opacity="0.75" fill="#2C2C54"></path>
            <polygon id="Triangle-1" fill-opacity="0.75" fill="#2C2C54" transform="translate(24.500000, 46.000000) scale(1, -1) translate(-24.500000, -46.000000) " points="24.5 42 30 50 19 50"></polygon>
            <path d="M18.5,42 L25,50" id="Line" stroke="#FFFFFF" stroke-linecap="square"></path>
            <path d="M30.5,42 L25.5,50" id="Line-2" stroke="#FFFFFF" stroke-linecap="square"></path>
            <g id="home-icon-silhouette" opacity="0.95" transform="translate(6.000000, 3.000000)" fill="#FFFFFF" fill-rule="nonzero">
                <path d="M37.3621607,15.9141852 L31.6030726,10.1826556 L31.6030726,3.56177706 C31.6030726,2.36462939 30.6282925,1.39443746 29.4236244,1.39443746 C28.2217177,1.39443746 27.2469376,2.36462939 27.2469376,3.56177706 L27.2469376,5.84744206 L22.9588409,1.57971213 C20.8387632,-0.529075481 17.1526553,-0.525334871 15.0374101,1.58352908 L0.637542097,15.9141852 C-0.212514032,16.7618531 -0.212514032,18.1334353 0.637542097,18.9798055 C1.48798176,19.8272443 2.86884355,19.8272443 3.71897639,18.9798055 L18.1174637,4.64876761 C18.586521,4.18439767 19.4132585,4.18439767 19.8798612,4.6473935 L34.2808031,18.9798055 C34.7078255,19.4035631 35.2645578,19.614335 35.8211367,19.614335 C36.3788662,19.614335 36.936519,19.4033341 37.3622374,18.9798055 C38.2126003,18.1335117 38.2126003,16.7619295 37.3621607,15.9141852 Z" id="Path"></path>
                <path d="M19.8306451,8.15112381 C19.3716675,7.74449719 18.6285008,7.74449719 18.1708696,8.15112381 L4.27480484,20.4653236 C4.05541455,20.6597226 3.93103448,20.9251377 3.93103448,21.2021152 L3.93103448,30.1836327 C3.93103448,32.2912133 5.85884145,34 8.23636905,34 L15.1163206,34 L15.1163206,24.5553116 L22.8836794,24.5553116 L22.8836794,34 L29.7637151,34 C32.1411586,34 34.0689655,32.2912133 34.0689655,30.1837073 L34.0689655,21.2021152 C34.0689655,20.9251377 33.9456795,20.6597226 33.7251952,20.4653236 L19.8306451,8.15112381 Z" id="Path"></path>
            </g>
        </g>
    </g>
</svg>